# xmcd
#
# Track frame offsets:
#	150
#	33102
#	52930
#	76945
#	97592
#	118037
#	148922
#	166517
#	181840
#	201548
#	220156
#	235983
#	266518
#	286633
#	308828
#
# Disc length: 4381 seconds
#
# Revision: 2
# Processed by: cddbd v1.5.2PL0 Copyright (c) Steve Scherf et al.
# Submitted via: EZCDAudioConverter 4.0.2.1
#
DISCID=c0111b0f
DTITLE=Chris Rea - Greatest hits CD2
DYEAR=1998
DGENRE=Blues
TTITLE0=Auberge
TTITLE1=Working On It
TTITLE2=God's Great Banana Skin
TTITLE3=Josephine
TTITLE4=Where Do We Go From Here?
TTITLE5=On The Beach
TTITLE6=Red Shoes
TTITLE7=I Can Hear Your Heartbeat
TTITLE8=You Must Be Evil
TTITLE9=Stainsby Girls
TTITLE10=Thinking Of You
TTITLE11=Steel River
TTITLE12=That's What They Always Say
TTITLE13=I'm Still Holding On
TTITLE14=Soft Top, Hard Shoulder
EXTD=
EXTT0=
EXTT1=
EXTT2=
EXTT3=
EXTT4=
EXTT5=
EXTT6=
EXTT7=
EXTT8=
EXTT9=
EXTT10=
EXTT11=
EXTT12=
EXTT13=
EXTT14=
PLAYORDER=
